<?xml version="1.0" encoding="utf-8"?>
<!-- Generator: Adobe Illustrator 19.0.0, SVG Export Plug-In . SVG Version: 6.00 Build 0)  -->
<svg version="1.1" id="Layer_1" xmlns="http://www.w3.org/2000/svg" xmlns:xlink="http://www.w3.org/1999/xlink" x="0px" y="0px"
	 viewBox="0 0 720 720" enable-background="new 0 0 720 720" xml:space="preserve">
<polygon id="XMLID_1_" fill="none" stroke="#000000" stroke-miterlimit="10" points="100.6,264.5 77.4,224.2 54.1,184 77.4,143.7 
	100.6,103.5 147.1,103.5 193.6,103.5 216.8,143.7 240,184 216.8,224.2 193.6,264.5 147.1,264.5 "/>
<polygon id="XMLID_2_" fill="none" stroke="#000000" stroke-miterlimit="10" points="259.2,484.2 217.3,411.6 175.4,339 
	217.3,266.4 259.2,193.7 343.1,193.7 426.9,193.7 468.9,266.4 510.8,339 468.9,411.6 426.9,484.2 343.1,484.2 "/>
<polygon id="XMLID_3_" fill="none" stroke="#000000" stroke-miterlimit="10" points="465.3,616.5 445,581.3 424.6,546 445,510.7 
	465.3,475.4 506.1,475.4 546.8,475.4 567.2,510.7 587.5,546 567.2,581.3 546.8,616.5 506.1,616.5 "/>
<polygon id="XMLID_4_" fill="none" stroke="#000000" stroke-miterlimit="10" points="576.2,334.8 561.2,308.9 546.3,283 
	561.2,257.1 576.2,231.2 606.1,231.2 636,231.2 650.9,257.1 665.9,283 650.9,308.9 636,334.8 606.1,334.8 "/>
<g id="XMLID_5_">
</g>
<g id="XMLID_6_">
</g>
<g id="XMLID_7_">
</g>
<g id="XMLID_8_">
</g>
<g id="XMLID_9_">
</g>
<g id="XMLID_10_">
</g>
</svg>
