<svg height="480px" viewBox="0 0 640 480" width="640px" x="0px" xmlns="http://www.w3.org/2000/svg" xmlns:xlink="http://www.w3.org/1999/xlink" y="0px">
	<path d=" M71,71 L69,89 L68,108 L66,127 L63,147 L63,167 L61,187 L59,207 L80,206 L101,203 L122,204 L143,202 L172,201 L173,181 L175,159 L175,139 L176,120 L177,102 L179,63 L0,0 L0,0 L211,241 L233,240 L256,240 L279,239 L301,232 L315,215 L318,194 L317,173 L318,153 L317,134 L317,115 L317,95 L295,97 L274,97 L253,99 L233,107 L218,120 L209,139 L209,159 L217,177 L233,190 L254,197 L276,196 L295,185 L361,194 L359,172 L359,152 L359,133 L357,112 L355,56 L356,75 L356,92 L376,101 L395,91 L416,91 L438,95 L455,108 L465,125 L468,146 L470,167 L471,188 L0,0 L483,85 L500,46 L502,64 L549,83 L528,83 L506,84 L507,104 L510,123 L512,144 L518,165 L536,181 L558,186 L0,0 L479,246 L482,266 L484,287 L561,285 L544,296 L525,308 L506,320 L486,309 L489,331 L490,354 L492,377 L494,400 L508,344 L528,357 L547,371 L568,385 L588,398 L0,0 L0,0 L453,288 L431,290 L412,300 L392,290 L393,311 L394,333 L395,356 L398,379 L399,402 L361,345 L357,367 L346,386 L329,402 L307,408 L285,406 L264,397 L250,380 L242,359 L242,337 L250,316 L264,301 L284,291 L304,287 L325,293 L344,306 L356,324 L0,0 L0,0 L225,295 L214,313 L202,332 L191,351 L177,370 L165,388 L154,408 L142,390 L0,0 L180,296 L170,315 L156,333 L143,351 L133,371 L119,390 L107,409 L98,390 L87,372 L79,354 L69,336 L58,319 L51,302 L94,300 L103,317 L112,335 L122,352" fill="#ffffff" fill-opacity="1" stroke="#ffffff" stroke-opacity="1" stroke-width="1.0"/>
</svg>
