<svg height="480px" viewBox="0 0 640 480" width="640px" x="0px" xmlns="http://www.w3.org/2000/svg" xmlns:xlink="http://www.w3.org/1999/xlink" y="0px">
	<path d=" M90,80 L89,98 L88,116 L86,135 L84,154 L83,174 L82,193 L80,213 L100,212 L120,208 L140,208 L160,206 L189,204 L190,184 L191,163 L191,144 L192,125 L193,106 L194,69 L0,0 L0,0 L226,243 L248,242 L271,241 L294,239 L315,233 L329,217 L332,195 L331,174 L331,154 L330,135 L330,116 L330,95 L308,98 L287,100 L267,101 L247,110 L232,124 L224,143 L224,163 L232,180 L248,193 L268,199 L290,196 L309,187 L376,192 L373,172 L373,151 L372,132 L370,111 L367,55 L369,74 L370,91 L389,99 L408,90 L430,89 L451,92 L469,103 L480,122 L483,143 L486,164 L487,185 L0,0 L497,80 L514,40 L516,57 L564,76 L543,76 L520,79 L522,99 L525,119 L527,140 L535,160 L552,176 L575,180 L0,0 L494,243 L497,264 L499,284 L579,281 L561,293 L543,305 L523,317 L502,306 L505,328 L507,352 L509,375 L512,399 L525,342 L546,356 L565,369 L586,383 L607,396 L0,0 L0,0 L468,286 L446,288 L426,298 L406,289 L408,310 L409,333 L410,354 L413,378 L414,402 L375,344 L373,367 L361,386 L344,402 L322,407 L300,405 L281,397 L266,380 L258,359 L258,338 L265,317 L279,301 L298,291 L319,288 L340,293 L358,305 L371,323 L0,0 L0,0 L241,296 L231,314 L219,333 L207,351 L196,371 L184,388 L172,409 L162,391 L0,0 L197,298 L187,316 L175,334 L162,352 L152,372 L139,390 L127,409 L118,391 L108,373 L100,356 L90,339 L81,322 L73,306 L114,303 L123,319 L131,337 L142,353 L0,0 L0,0 L0,0 L0,0 L0,0 L0,0 L0,0 L0,0 L0,0 L0,0 L0,0 L0,0 L0,0 L0,0 L0,0 L0,0 L0,0 L0,0 L0,0 L0,0 L0,0 L0,0" fill="#ffffff" fill-opacity="1" stroke="#ffffff" stroke-opacity="1" stroke-width="1.0"/>
</svg>
