<svg height="480px" viewBox="0 0 640 480" width="640px" x="0px" xmlns="http://www.w3.org/2000/svg" lnslink="http://www.w3.org/1999link" y="0px">
<path d=" M111,98 L110,114 L109,131 L108,149 L107,166 L105,184 L105,201 L104,219 L122,219 L142,218 L160,218 L179,217 L205,217 L206,199 L206,181 L206,163 L207,146 L207,129 L208,95 L0,0 L0,0 L238,253 L258,253 L277,252 L297,251 L315,247 L327,233 L330,215 L328,197 L329,179 L328,162 L328,145 L328,128 L309,129 L291,129 L273,129 L256,136 L242,148 L235,164 L236,182 L243,198 L257,210 L275,216 L293,215 L310,207 L366,214 L363,197 L364,179 L363,162 L363,144 L360,94 L361,111 L362,127 L378,135 L394,128 L413,128 L430,132 L444,144 L453,160 L455,178 L456,195 L457,214 L0,0 L467,125 L482,93 L484,108 L521,126 L504,125 L486,126 L487,142 L489,160 L490,177 L496,194 L509,208 L526,213 L0,0 L462,262 L464,279 L465,296 L528,295 L514,304 L499,314 L483,323 L467,313 L468,332 L470,351 L471,369 L473,388 L484,343 L500,354 L515,365 L531,376 L546,387 L0,0 L0,0 L441,296 L423,297 L407,305 L391,297 L392,315 L393,333 L393,351 L395,371 L396,390 L364,342 L362,361 L353,376 L338,389 L320,394 L301,392 L285,385 L273,370 L266,353 L266,335 L272,317 L284,304 L301,296 L318,294 L336,299 L350,310 L361,325 L0,0 L0,0 L251,299 L242,314 L232,330 L223,345 L212,361 L202,378 L191,393 L181,379 L0,0 L212,300 L204,315 L193,330 L182,346 L173,362 L162,378 L151,394 L143,378 L133,362 L125,347 L116,332 L107,317 L99,302 L137,301 L146,316 L154,332 L164,346 L0,0" fill="#ffffff" fill-opacity="1" stroke="#ffffff" stroke-opacity="1" stroke-width="1.0"/>
</svg>
