<svg height="480px" viewBox="0 0 640 480" width="640px" x="0px" xmlns="http://www.w3.org/2000/svg" xmlns:xlink="http://www.w3.org/1999/xlink" y="0px">
	<path d=" M101,139 L101,139 L102,139 L101,154 L100,169 L99,185 L98,201 L97,217 L97,233 L96,249 L113,248 L131,247 L148,247 L164,246 L188,245 L188,229 L188,213 L188,197 L189,181 L189,166 L189,135 L0,0 L218,277 L218,277 L236,276 L253,276 L271,275 L287,270 L297,257 L300,241 L297,224 L299,209 L298,193 L297,177 L297,162 L279,163 L264,164 L248,163 L232,171 L221,182 L214,197 L215,213 L222,227 L234,238 L251,243 L267,241 L282,233 L333,239 L329,223 L331,207 L329,192 L328,176" fill="#ffffff" fill-opacity="1" stroke="#ffffff" stroke-opacity="1" stroke-width="1.0"/>
</svg>
