<svg height="480px" viewBox="0 0 640 480" width="640px" x="0px" xmlns="http://www.w3.org/2000/svg" xmlns:xlink="http://www.w3.org/1999/xlink" y="0px">
	<path d=" M108,69 L108,69 L108,85 L107,100 L107,116 L106,131 L106,147 L106,162 L105,178 L122,178 L138,177 L155,178 L170,177 L192,177 L192,161 L193,145 L193,129 L193,114 L193,98 L193,67 L-1,-1 L221,208 L238,208 L255,207 L271,207 L287,202 L297,191 L300,175 L298,158 L300,143 L299,127 L298,111 L299,96 L281,96 L266,97 L250,97 L235,104 L224,115 L218,130 L219,146 L225,159 L237,170 L252,175 L268,174 L283,167 L332,174 L329,158 L331,142 L330,127 L329,110 L-1,-1" fill="#ffffff" fill-opacity="1" stroke="#ffffff" stroke-opacity="1" stroke-width="1.0"/>
</svg>
